<?xml version="1.0" standalone="no"?>
<!DOCTYPE svg PUBLIC "-//W3C//DTD SVG 20010904//EN"
 "http://www.w3.org/TR/2001/REC-SVG-20010904/DTD/svg10.dtd">
<svg version="1.0" xmlns="http://www.w3.org/2000/svg"
 width="1812.000000pt" height="622.000000pt" viewBox="0 0 1812.000000 622.000000"
 preserveAspectRatio="xMidYMid meet">
<metadata>
Created by potrace 1.15, written by Peter Selinger 2001-2017
</metadata>
<g transform="translate(0.000000,622.000000) scale(0.100000,-0.100000)"
fill="#000000" stroke="none">
<path d="M5762 6175 c-15 -57 -73 -121 -120 -135 -25 -6 -771 -10 -2207 -10
l-2170 0 -285 -920 c-157 -506 -293 -951 -303 -988 -27 -100 -19 -241 17 -315
45 -93 136 -158 268 -194 56 -15 162 -17 969 -22 l906 -6 -169 -570 c-94 -313
-180 -590 -191 -614 -43 -88 -29 -86 -441 -89 l-363 -3 -87 -282 c-47 -156
-86 -286 -86 -290 0 -11 1052 -8 1160 3 308 33 542 183 660 425 27 54 107 301
243 750 l203 670 1067 3 1066 2 22 73 c23 79 136 451 145 480 5 16 -51 17
-1076 17 l-1082 0 6 23 c5 21 283 942 347 1150 l30 97 747 0 c791 0 853 3
1047 49 48 12 114 35 146 53 70 37 182 150 221 224 15 28 59 144 97 257 l70
207 -422 0 -423 0 -12 -45z m-2352 -752 c0 -6 -255 -845 -346 -1140 l-35 -113
-675 0 c-742 0 -729 -1 -754 59 -24 59 -6 141 118 531 66 206 141 441 166 523
l47 147 740 0 c406 0 739 -3 739 -7z"/>
<path d="M13345 5788 c-370 -475 -383 -491 -448 -528 -51 -30 -54 -30 -207
-30 l-156 0 -84 -277 c-46 -153 -85 -284 -88 -290 -3 -10 52 -13 253 -13 221
0 256 -2 252 -15 -4 -8 -203 -661 -443 -1452 -240 -791 -439 -1444 -442 -1450
-3 -10 79 -13 391 -13 l394 0 187 608 c102 334 354 1154 559 1822 l373 1215
292 401 c161 221 292 405 292 408 0 3 -184 6 -409 6 l-409 0 -307 -392z"/>
<path d="M17176 5982 c-33 -108 -66 -218 -74 -244 l-14 -48 -1408 0 -1409 0
-71 -222 c-39 -123 -80 -249 -90 -280 l-19 -58 1410 0 c998 0 1409 -3 1409
-11 0 -6 -158 -529 -351 -1162 -192 -634 -361 -1190 -375 -1237 -55 -184 -146
-336 -232 -391 l-46 -29 -1077 0 -1077 0 -11 -32 c-124 -394 -171 -546 -171
-551 0 -4 566 -7 1258 -7 1319 0 1365 2 1532 45 94 24 182 67 225 110 47 48
130 175 182 280 74 148 55 89 598 1870 157 517 298 977 311 1023 l25 82 122 0
122 0 83 274 c46 150 86 283 89 295 5 21 3 21 -112 21 -107 0 -116 1 -111 18
11 34 126 443 126 447 0 3 -177 5 -392 5 l-393 0 -59 -198z"/>
<path d="M7151 6068 c-5 -18 -145 -490 -311 -1048 -165 -558 -303 -1023 -306
-1032 -5 -17 10 -18 220 -18 124 0 226 -2 226 -5 0 -3 -63 -98 -141 -210 -202
-294 -231 -314 -488 -324 l-153 -6 -74 -250 c-41 -137 -74 -253 -74 -258 0 -4
138 -7 308 -5 l307 3 102 36 c125 44 230 103 339 192 l84 67 1753 -2 1754 -3
-108 -383 c-59 -210 -117 -403 -129 -427 -31 -64 -100 -121 -161 -134 -30 -7
-180 -11 -368 -11 l-318 0 -75 -251 -76 -250 542 3 541 4 117 31 c318 85 531
258 602 488 83 272 436 1443 436 1448 0 4 -895 8 -1989 9 l-1988 3 67 115 66
115 1575 5 c1422 5 1583 7 1664 22 144 27 262 65 374 119 87 43 116 63 186
132 55 55 93 103 114 144 17 34 31 67 31 73 0 7 -676 10 -2125 10 -1693 0
-2125 3 -2125 13 0 6 74 262 163 567 l163 555 1717 3 c1370 2 1717 0 1717 -10
0 -7 -20 -80 -44 -163 l-43 -150 -1506 -5 -1505 -5 -227 -233 -227 -232 2078
2 2079 3 187 610 c103 336 192 625 197 643 l9 32 -2573 0 -2573 0 -11 -32z"/>
<path d="M15160 4369 c-165 -166 -304 -282 -462 -386 -100 -66 -269 -156 -347
-186 l-45 -17 92 -63 c198 -135 372 -328 469 -524 27 -54 55 -113 61 -132 l12
-33 136 131 c155 150 337 299 486 399 109 72 278 169 341 195 20 9 37 20 37
24 0 5 -24 23 -52 40 -78 46 -206 153 -273 225 -121 130 -202 258 -291 463 -8
18 -26 3 -164 -136z"/>
<path d="M664 3320 c-200 -29 -404 -179 -504 -370 -119 -231 -80 -456 98 -553
240 -131 627 42 778 348 131 266 42 518 -202 570 -75 16 -93 16 -170 5z"/>
<path d="M5124 3320 c-230 -34 -468 -233 -546 -458 -32 -93 -33 -245 -2 -313
122 -264 506 -261 779 6 79 78 143 177 175 275 30 89 26 243 -8 311 -47 97
-137 160 -253 179 -70 11 -71 11 -145 0z"/>
<path d="M8700 2689 c-250 -193 -475 -361 -500 -374 -98 -50 -142 -58 -372
-62 l-218 -5 -75 -233 c-41 -128 -75 -238 -75 -244 0 -18 759 -15 880 4 210
32 382 104 535 223 159 123 1223 1023 1224 1035 1 4 -212 7 -471 7 l-473 -1
-455 -350z"/>
<path d="M6930 2680 c-250 -192 -477 -361 -505 -375 -94 -46 -153 -55 -375
-55 l-206 0 -77 -243 c-42 -133 -77 -246 -77 -250 0 -11 709 -8 818 3 186 20
346 71 492 157 41 24 195 144 341 266 359 301 978 826 985 838 3 5 -183 9
-468 9 l-473 0 -455 -350z"/>
<path d="M5 2083 c9 -68 68 -239 109 -320 63 -126 157 -255 266 -363 118 -119
199 -182 346 -270 495 -295 1275 -411 2074 -309 811 103 1601 414 2180 859
116 89 319 292 378 378 l43 62 -468 0 -468 0 -70 -57 c-351 -283 -893 -511
-1430 -603 -490 -83 -1095 -76 -1432 15 -124 34 -271 95 -367 153 -182 109
-340 306 -380 475 l-6 27 -391 0 -391 0 7 -47z"/>
<path d="M10440 1275 l0 -35 -270 0 -270 0 0 -80 0 -80 640 0 640 0 0 80 0 80
-255 0 -255 0 0 35 0 35 -115 0 -115 0 0 -35z"/>
<path d="M12580 1245 l0 -65 -250 0 -250 0 0 -105 0 -105 250 0 250 0 0 -70 0
-70 -235 0 -235 0 0 -100 0 -100 437 -2 436 -3 -134 -99 c-74 -55 -138 -99
-144 -99 -5 0 -59 32 -119 72 l-110 71 -164 0 -164 0 29 -23 c15 -13 97 -76
181 -141 83 -64 152 -120 152 -124 0 -4 -24 -24 -52 -44 l-52 -38 -148 0 -148
0 0 -95 0 -95 211 0 c141 0 218 4 232 12 12 6 51 35 87 63 l66 52 54 -44 c99
-81 106 -83 353 -83 l217 0 0 95 0 95 -143 0 -143 0 -67 42 c-37 24 -67 45
-67 49 0 3 92 77 205 165 l204 159 1 108 0 107 -250 0 -250 0 0 70 0 70 275 0
275 0 0 105 0 105 -275 0 -275 0 0 65 0 65 -120 0 -120 0 0 -65z"/>
<path d="M14420 1193 c-72 -157 -72 -158 -103 -161 -27 -3 -27 -4 -27 -83 l0
-79 50 0 50 0 0 -430 0 -430 105 0 105 0 0 543 0 542 50 94 c28 51 50 98 50
102 0 5 -52 9 -115 9 l-116 0 -49 -107z"/>
<path d="M15290 1225 l0 -75 -315 0 -315 0 0 -90 0 -90 315 0 315 0 0 -376 c0
-239 -4 -382 -10 -395 -10 -18 -24 -19 -260 -19 l-250 0 0 -91 0 -90 313 3
c305 3 313 3 344 26 17 12 41 42 52 65 20 42 21 58 21 460 l0 417 40 0 40 0 0
90 0 90 -40 0 -40 0 0 75 0 75 -105 0 -105 0 0 -75z"/>
<path d="M8760 1250 l0 -40 -495 0 -495 0 2 -311 3 -312 28 -21 c27 -20 43
-21 248 -24 l219 -3 0 -173 c0 -149 -2 -175 -16 -180 -9 -3 -51 -6 -95 -6
l-79 0 0 -85 0 -85 155 0 c174 0 218 10 235 55 6 15 10 126 10 251 l0 224 250
0 250 0 0 95 0 95 -250 0 -250 0 0 105 0 105 -105 0 -105 0 0 -105 0 -106
-147 3 -148 3 -3 153 -3 152 460 0 c316 0 468 3 484 11 37 17 47 50 47 149 l0
90 -100 0 -100 0 0 -40z"/>
<path d="M9950 855 l0 -185 544 0 c337 0 555 4 571 10 44 17 55 62 55 220 l0
140 -585 0 -585 0 0 -185z m950 5 l0 -30 -365 0 -365 0 0 30 0 30 365 0 365 0
0 -30z"/>
<path d="M14730 863 c0 -10 23 -117 50 -238 45 -199 52 -222 80 -250 l30 -30
165 -3 165 -3 0 95 0 96 -95 0 c-80 0 -96 3 -104 18 -5 9 -21 78 -36 152 -14
74 -29 145 -32 158 -5 21 -9 22 -114 22 -97 0 -109 -2 -109 -17z"/>
<path d="M5520 655 l0 -35 880 0 880 0 0 35 0 35 -880 0 -880 0 0 -35z"/>
<path d="M16000 655 l0 -35 880 0 880 0 0 35 0 35 -880 0 -880 0 0 -35z"/>
<path d="M9940 545 l0 -85 441 0 440 0 -18 -30 -17 -30 -443 0 -443 0 0 -80 0
-80 425 0 c403 0 425 -1 425 -18 0 -41 -11 -42 -362 -42 l-338 0 0 -85 0 -85
419 0 c272 0 429 4 449 11 48 17 62 47 62 139 l0 80 100 0 100 0 0 80 0 80
-66 0 -65 0 30 37 c29 35 31 43 31 115 l0 78 -585 0 -585 0 0 -85z"/>
<path d="M7891 438 c-5 -13 -21 -57 -35 -98 -38 -105 -49 -120 -91 -120 l-35
0 0 -90 0 -90 83 0 c64 0 89 4 114 20 39 23 49 42 128 242 l63 158 -109 0
c-104 0 -110 -1 -118 -22z"/>
<path d="M8600 458 c0 -2 22 -83 49 -181 64 -235 60 -231 221 -235 l120 -4 0
91 0 91 -55 0 c-65 0 -63 -3 -95 143 l-22 97 -109 0 c-60 0 -109 -1 -109 -2z"/>
</g>
</svg>
